<svg xmlns="http://www.w3.org/2000/svg" xmlns:xlink="http://www.w3.org/1999/xlink" width="500" zoomAndPan="magnify" viewBox="0 0 375 374.999991" height="500" preserveAspectRatio="xMidYMid meet" version="1.2"><defs><clipPath id="2ab7864636"><path d="M 60.582031 129.75 L 121 129.75 L 121 191 L 60.582031 191 Z M 60.582031 129.75 "/></clipPath><clipPath id="e3deb20cdf"><path d="M 253 184 L 314.082031 184 L 314.082031 245.25 L 253 245.25 Z M 253 184 "/></clipPath></defs><g id="2677baa2b5"><rect x="0" width="375" y="0" height="374.999991" style="fill:#ffffff;fill-opacity:1;stroke:none;"/><rect x="0" width="375" y="0" height="374.999991" style="fill:#0a1828;fill-opacity:1;stroke:none;"/><g clip-rule="nonzero" clip-path="url(#2ab7864636)"><path style=" stroke:none;fill-rule:nonzero;fill:#ffffff;fill-opacity:1;" d="M 63.074219 190.222656 L 60.582031 190.222656 L 60.582031 129.808594 L 120.996094 129.808594 L 120.996094 132.300781 L 63.074219 132.300781 Z M 63.074219 190.222656 "/></g><g clip-rule="nonzero" clip-path="url(#e3deb20cdf)"><path style=" stroke:none;fill-rule:nonzero;fill:#ffffff;fill-opacity:1;" d="M 314.082031 245.035156 L 253.664062 245.035156 L 253.664062 242.542969 L 311.589844 242.542969 L 311.589844 184.617188 L 314.082031 184.617188 Z M 314.082031 245.035156 "/></g><g style="fill:#ffffff;fill-opacity:1;"><g transform="translate(85.944396, 199.499987)"><path style="stroke:none" d="M 6.046875 0 L 2.515625 0 L 2.515625 -35.25 L 15.765625 -35.25 C 19.359375 -35.25 22.242188 -34.289062 24.421875 -32.375 C 26.609375 -30.46875 27.703125 -27.734375 27.703125 -24.171875 C 27.703125 -21.316406 26.96875 -19.039062 25.5 -17.34375 C 24.039062 -15.65625 22.070312 -14.539062 19.59375 -14 L 27.640625 0 L 23.5625 0 L 16.96875 -11.484375 C 16.4375 -12.316406 15.929688 -12.875 15.453125 -13.15625 C 14.984375 -13.445312 14.363281 -13.59375 13.59375 -13.59375 L 8.0625 -13.59375 C 7.550781 -13.59375 7.085938 -13.46875 6.671875 -13.21875 C 6.253906 -12.96875 6.046875 -12.59375 6.046875 -12.09375 Z M 6.046875 -31.71875 L 6.046875 -16.625 C 6.046875 -16.625 6.171875 -16.707031 6.421875 -16.875 C 6.671875 -17.039062 7.046875 -17.125 7.546875 -17.125 L 15.765625 -17.125 C 18.242188 -17.125 20.304688 -17.675781 21.953125 -18.78125 C 23.597656 -19.894531 24.421875 -21.691406 24.421875 -24.171875 C 24.421875 -26.660156 23.648438 -28.539062 22.109375 -29.8125 C 20.566406 -31.082031 18.453125 -31.71875 15.765625 -31.71875 Z M 6.046875 -31.71875 "/></g></g><g style="fill:#ffffff;fill-opacity:1;"><g transform="translate(121.689739, 199.499987)"><path style="stroke:none" d="M 2.515625 -35.25 L 6.046875 -35.25 L 6.046875 -15.3125 L 22.8125 -35.25 L 27.703125 -35.25 L 15.0625 -20.1875 C 14.320312 -19.050781 13.914062 -18.15625 13.84375 -17.5 C 13.78125 -16.84375 14.1875 -16.03125 15.0625 -15.0625 L 27.703125 0 L 22.859375 0 L 12.640625 -12.140625 C 11.972656 -12.910156 11.535156 -13.546875 11.328125 -14.046875 C 11.128906 -14.554688 11.046875 -14.9375 11.078125 -15.1875 C 11.109375 -15.4375 11.125 -15.5625 11.125 -15.5625 L 7.453125 -11.1875 C 6.816406 -10.539062 6.421875 -9.898438 6.265625 -9.265625 C 6.117188 -8.628906 6.046875 -8.054688 6.046875 -7.546875 L 6.046875 0 L 2.515625 0 Z M 2.515625 -35.25 "/></g></g><g style="fill:#ffffff;fill-opacity:1;"><g transform="translate(157.435082, 199.499987)"><path style="stroke:none" d="M 8.96875 -7.453125 L 6.25 0 L 2.515625 0 L 15.359375 -35.25 L 19.09375 -35.25 L 31.921875 0 L 28.203125 0 L 24.921875 -9.0625 L 11.578125 -9.0625 C 10.171875 -9.0625 9.300781 -8.523438 8.96875 -7.453125 Z M 17.21875 -30.109375 L 10.578125 -12.09375 C 10.847656 -12.351562 11.132812 -12.5 11.4375 -12.53125 C 11.738281 -12.570312 12.15625 -12.59375 12.6875 -12.59375 L 23.625 -12.59375 Z M 17.21875 -30.109375 "/></g></g><g style="fill:#ffffff;fill-opacity:1;"><g transform="translate(197.409304, 199.499987)"><path style="stroke:none" d="M 7.546875 -2.515625 C 7.546875 -1.773438 7.316406 -1.171875 6.859375 -0.703125 C 6.410156 -0.234375 5.800781 0 5.03125 0 C 4.289062 0 3.6875 -0.234375 3.21875 -0.703125 C 2.75 -1.171875 2.515625 -1.773438 2.515625 -2.515625 C 2.515625 -3.285156 2.75 -3.894531 3.21875 -4.34375 C 3.6875 -4.800781 4.289062 -5.03125 5.03125 -5.03125 C 5.800781 -5.03125 6.410156 -4.800781 6.859375 -4.34375 C 7.316406 -3.894531 7.546875 -3.285156 7.546875 -2.515625 Z M 7.546875 -2.515625 "/></g></g><g style="fill:#ffffff;fill-opacity:1;"><g transform="translate(213.017121, 199.499987)"><path style="stroke:none" d="M 2.515625 -35.25 L 7.203125 -35.25 L 23.109375 -12.640625 C 23.347656 -12.304688 23.566406 -12.140625 23.765625 -12.140625 C 24.035156 -12.140625 24.171875 -12.304688 24.171875 -12.640625 L 24.171875 -35.25 L 27.703125 -35.25 L 27.703125 0 L 6.046875 -30.765625 L 6.046875 0 L 2.515625 0 Z M 2.515625 -35.25 "/></g></g><g style="fill:#ffffff;fill-opacity:1;"><g transform="translate(248.762465, 199.499987)"><path style="stroke:none" d="M 5.796875 -17.578125 C 5.796875 -14.722656 6.390625 -12.210938 7.578125 -10.046875 C 8.765625 -7.878906 10.441406 -6.195312 12.609375 -5 C 14.773438 -3.8125 17.285156 -3.21875 20.140625 -3.21875 C 22.722656 -3.21875 25.015625 -3.703125 27.015625 -4.671875 C 29.015625 -5.648438 30.644531 -7.035156 31.90625 -8.828125 C 33.164062 -10.628906 33.960938 -12.722656 34.296875 -15.109375 C 34.359375 -15.847656 34.265625 -16.285156 34.015625 -16.421875 C 33.765625 -16.554688 33.40625 -16.625 32.9375 -16.625 L 18.640625 -16.625 L 18.640625 -20.140625 L 37.8125 -20.140625 L 37.765625 0 L 34.5 0 L 34.5 -6.640625 C 32.957031 -4.523438 30.957031 -2.878906 28.5 -1.703125 C 26.050781 -0.535156 23.265625 0.046875 20.140625 0.046875 C 16.617188 0.046875 13.539062 -0.6875 10.90625 -2.15625 C 8.269531 -3.632812 6.210938 -5.691406 4.734375 -8.328125 C 3.253906 -10.960938 2.515625 -14.046875 2.515625 -17.578125 C 2.515625 -21.097656 3.253906 -24.179688 4.734375 -26.828125 C 6.210938 -29.484375 8.269531 -31.539062 10.90625 -33 C 13.539062 -34.46875 16.617188 -35.203125 20.140625 -35.203125 C 23.703125 -35.203125 26.804688 -34.453125 29.453125 -32.953125 C 32.109375 -31.460938 34.160156 -29.390625 35.609375 -26.734375 L 32.640625 -25.1875 C 31.460938 -27.300781 29.796875 -28.953125 27.640625 -30.140625 C 25.492188 -31.328125 22.992188 -31.921875 20.140625 -31.921875 C 17.285156 -31.921875 14.773438 -31.328125 12.609375 -30.140625 C 10.441406 -28.953125 8.765625 -27.28125 7.578125 -25.125 C 6.390625 -22.976562 5.796875 -20.460938 5.796875 -17.578125 Z M 5.796875 -17.578125 "/></g></g></g></svg>